<svg width="89" height="83" viewBox="0 0 89 89" fill="none" xmlns="http://www.w3.org/2000/svg">
<g clip-path="url(#clip0_107_90)">
<path d="M35.2912 87.6264C53.4346 87.6264 68.1427 72.7511 68.1427 54.4016C68.1427 36.052 53.4346 21.1768 35.2912 21.1768C17.1478 21.1768 2.4397 36.052 2.4397 54.4016C2.4397 72.7511 17.1478 87.6264 35.2912 87.6264Z" fill="#F8F8F8"/>
<path d="M35.2917 77.2403C22.8394 77.2403 12.7087 66.9945 12.7087 54.4007C12.7087 41.807 22.8394 31.561 35.2917 31.561C47.7439 31.561 57.8746 41.8068 57.8746 54.4007C57.8747 66.9945 47.7441 77.2403 35.2917 77.2403Z" fill="#EFF2F6"/>
<path d="M35.2917 68.3355C27.6945 68.3355 21.5137 62.0846 21.5137 54.4009C21.5137 46.7172 27.6943 40.4663 35.2917 40.4663C42.8887 40.4663 49.0697 46.7172 49.0697 54.4009C49.0697 62.0846 42.8889 68.3355 35.2917 68.3355Z" fill="#EFF2F6"/>
<path d="M35.2916 61.7349C31.2931 61.7349 28.04 58.4448 28.04 54.4009C28.04 50.3569 31.2931 47.0669 35.2916 47.0669C39.2901 47.0669 42.5432 50.3569 42.5432 54.4009C42.5432 58.4448 39.2901 61.7349 35.2916 61.7349Z" fill="#E30613"/>
<path d="M2.44092 54.401C2.44092 72.6763 17.0309 87.5031 35.0729 87.6224V21.1797C17.0309 21.2989 2.44092 36.1258 2.44092 54.401Z" fill="#EFF2F6"/>
<path d="M12.7087 54.4008C12.7087 66.9206 22.7211 77.1182 35.0731 77.2375V31.564C22.7211 31.6834 12.7087 41.881 12.7087 54.4008Z" fill="#EFF2F6"/>
<path d="M21.5137 54.4009C21.5137 62.0102 27.5767 68.2108 35.0731 68.3297V61.7291V47.0723V40.4717C27.5767 40.5909 21.5137 46.7914 21.5137 54.4009Z" fill="#EFF2F6"/>
<path d="M28.04 54.4009C28.04 58.3707 31.1754 61.6116 35.073 61.7291V47.0723C31.1754 47.1901 28.04 50.4311 28.04 54.4009Z" fill="#E30613"/>
<path d="M67.5868 39.2323H49.1274L68.0997 20.0444H86.5591L67.5868 39.2323Z" fill="#EFF2F6"/>
<path d="M49.1274 20.5628V39.232L68.0997 20.0441V1.375L49.1274 20.5628Z" fill="#E30613"/>
<path d="M87.8153 19.5182C87.6047 19.0042 87.109 18.6692 86.559 18.6692H69.4594V1.3752C69.4594 0.818954 69.1282 0.317634 68.6199 0.104694C68.1124 -0.108072 67.5271 0.00943627 67.1382 0.402809L57.3961 10.2556C57.3958 10.2559 57.3955 10.2561 57.3953 10.2564C57.3949 10.2568 57.3948 10.2571 57.3944 10.2573L48.1661 19.5905C47.911 19.8483 47.7679 20.1982 47.7679 20.5627V22.1791C43.8001 20.602 39.6134 19.8015 35.2916 19.8015C16.428 19.8015 1.0813 35.3226 1.0813 54.4006C1.0813 73.4786 16.4278 89.0001 35.2916 89.0001C54.1554 89.0001 69.502 73.4789 69.502 54.401C69.502 49.5847 68.5496 44.9553 66.6717 40.6073H67.587C67.9475 40.6073 68.2934 40.4625 68.5483 40.2046L77.7778 30.8702C77.7779 30.87 77.7781 30.8698 77.7781 30.8698L87.5207 21.0166C87.9093 20.6234 88.0258 20.032 87.8153 19.5182ZM66.74 19.4749L59.7168 26.5779V11.7979L66.74 4.69497V19.4749ZM50.4871 21.1325L56.9976 14.5481V29.3278L52.2103 34.1694L50.5995 35.7986C50.5621 35.7669 50.5246 35.7351 50.4869 35.7038V24.2619L50.4871 21.1325ZM47.7677 38.6627L44.3342 42.1353C41.7272 40.1651 38.5624 39.0912 35.2918 39.0912C26.9449 39.0912 20.1541 45.9592 20.1541 54.401C20.1541 62.8427 26.9449 69.7107 35.2918 69.7107C43.6388 69.7107 50.4295 62.8427 50.4295 54.401C50.4295 50.5234 48.9614 46.7982 46.3616 43.9744L49.6908 40.6073H51.5366C54.7508 44.4733 56.5151 49.3471 56.5151 54.401C56.5151 66.2366 46.9943 75.8652 35.292 75.8652C23.5894 75.8652 14.0689 66.2362 14.0689 54.401C14.0689 42.5657 23.5897 32.9367 35.292 32.9367C39.8248 32.9367 44.1231 34.3596 47.7682 37.0527V38.6629L47.7677 38.6627ZM34.8367 53.6853C35.1021 53.9537 35.4501 54.0881 35.798 54.0881C36.1459 54.0881 36.4939 53.9539 36.7593 53.6853L39.8164 50.5934C40.6942 51.655 41.1833 52.9907 41.1833 54.4008C41.1833 57.6865 38.5401 60.3596 35.2915 60.3596C32.0425 60.3596 29.3996 57.6863 29.3996 54.4008C29.3996 51.1151 32.0427 48.442 35.2915 48.442C36.1055 48.442 36.8909 48.608 37.6185 48.9269L34.8363 51.7407C34.3058 52.2776 34.3058 53.1485 34.8367 53.6853ZM39.6348 46.8879C38.3221 46.1118 36.8179 45.6918 35.2916 45.6918C30.5433 45.6918 26.6804 49.5986 26.6804 54.401C26.6804 59.2031 30.5433 63.1101 35.2916 63.1101C40.0399 63.1101 43.9029 59.2031 43.9029 54.401C43.9029 52.2526 43.1302 50.2223 41.7459 48.6424L44.4371 45.9206C46.5297 48.229 47.71 51.2541 47.71 54.401C47.71 61.3263 42.1391 66.9604 35.2916 66.9604C28.4441 66.9604 22.8733 61.3263 22.8733 54.401C22.8733 47.4756 28.4441 41.8415 35.2916 41.8415C37.8405 41.8415 40.3107 42.639 42.3858 44.1058L39.6348 46.8879ZM35.2916 86.2497C17.9275 86.2497 3.80053 71.9625 3.80053 54.4008C3.80053 36.8391 17.9273 22.5518 35.2916 22.5518C39.6327 22.5518 43.8252 23.426 47.7679 25.1516V33.743C44.0201 31.4111 39.7571 30.186 35.2918 30.186C22.0898 30.186 11.3493 41.0487 11.3493 54.4006C11.3493 67.7525 22.0899 78.6152 35.2918 78.6152C48.4939 78.6152 59.2343 67.7525 59.2343 54.4006C59.2343 49.4444 57.731 44.6424 54.9574 40.607H63.6804C65.7388 44.923 66.7829 49.5588 66.7829 54.4006C66.7826 71.9625 52.6558 86.2497 35.2916 86.2497ZM67.0237 37.857H64.5235H52.7578C52.7017 37.7965 52.6445 37.7371 52.5879 37.6771L54.1334 36.1141L58.9205 31.2726H73.5342L67.0237 37.857ZM76.2534 28.5226H61.6397L68.6629 21.4197H83.2766L76.2534 28.5226Z" fill="#1C1C1C"/>
</g>
<defs>
<clipPath id="clip0_107_90">
<rect width="88" height="89" fill="white" transform="translate(0.5)"/>
</clipPath>
</defs>
</svg>
