<svg width="75" height="75" viewBox="0 0 75 75" fill="none" xmlns="http://www.w3.org/2000/svg">
<g clip-path="url(#clip0_95_131)">
<path d="M2.2915 73.3315H72.7083L2.2915 2.91455V73.3315Z" fill="#F8F8F8"/>
<path d="M11.6388 63.9844V25.4814L50.2746 63.9844H11.6388Z" fill="#F8F8F8"/>
<path d="M30.9234 44.6995L50.2746 63.984H11.6388L2.2915 73.3314H72.7083L37.4999 38.123L30.9234 44.6995Z" fill="#F8F8F8"/>
<path d="M50.2746 63.9842L30.9235 44.6997L11.6388 63.9842H50.2746Z" fill="#F8F8F8"/>
<path d="M11.6388 63.9844L30.9235 44.6999L11.6388 25.4814V63.9844Z" fill="#F8F8F8"/>
<path d="M11.6387 74.4998C10.9934 74.4998 10.4703 73.9769 10.4703 73.3314V68.3461C10.4703 67.7007 10.9935 67.1777 11.6387 67.1777C12.2839 67.1777 12.8071 67.7007 12.8071 68.3461V73.3314C12.8073 73.9769 12.2841 74.4998 11.6387 74.4998Z" fill="#3B3B3B"/>
<path d="M20.9861 74.4998C20.3408 74.4998 19.8177 73.9769 19.8177 73.3314V68.3461C19.8177 67.7007 20.341 67.1777 20.9861 67.1777C21.6315 67.1777 22.1545 67.7007 22.1545 68.3461V73.3314C22.1545 73.9769 21.6315 74.4998 20.9861 74.4998Z" fill="#3B3B3B"/>
<path d="M30.3336 74.4998C29.6882 74.4998 29.1652 73.9769 29.1652 73.3314V68.3461C29.1652 67.7007 29.6884 67.1777 30.3336 67.1777C30.9789 67.1777 31.5019 67.7007 31.5019 68.3461V73.3314C31.5019 73.9769 30.9787 74.4998 30.3336 74.4998Z" fill="#3B3B3B"/>
<path d="M39.6808 74.4998C39.0355 74.4998 38.5125 73.9769 38.5125 73.3314V68.3461C38.5125 67.7007 39.0357 67.1777 39.6808 67.1777C40.326 67.1777 40.8492 67.7007 40.8492 68.3461V73.3314C40.8494 73.9769 40.3262 74.4998 39.6808 74.4998Z" fill="#3B3B3B"/>
<path d="M49.0283 74.4998C48.3829 74.4998 47.8599 73.9769 47.8599 73.3314V68.3461C47.8599 67.7007 48.3831 67.1777 49.0283 67.1777C49.6734 67.1777 50.1966 67.7007 50.1966 68.3461V73.3314C50.1966 73.9769 49.6736 74.4998 49.0283 74.4998Z" fill="#3B3B3B"/>
<path d="M58.3757 74.4998C57.7303 74.4998 57.2073 73.9769 57.2073 73.3314V68.3461C57.2073 67.7007 57.7305 67.1777 58.3757 67.1777C59.0209 67.1777 59.5441 67.7007 59.5441 68.3461V73.3314C59.5441 73.9769 59.0209 74.4998 58.3757 74.4998Z" fill="#3B3B3B"/>
<path d="M25.9715 33.9945C25.6726 33.9945 25.3734 33.8805 25.1454 33.6524L7.69683 16.204C7.24054 15.7476 7.24054 15.0079 7.69683 14.5516C8.15311 14.0954 8.89297 14.0954 9.34911 14.5516L26.7975 32C27.2538 32.4564 27.2538 33.1961 26.7975 33.6524C26.5696 33.8805 26.2704 33.9945 25.9715 33.9945Z" fill="#F8F8F8"/>
<path d="M32.203 40.8494C31.9041 40.8494 31.6049 40.7354 31.3768 40.5073L28.261 37.3915C27.8048 36.9351 27.8048 36.1954 28.261 35.7391C28.7173 35.2829 29.4572 35.2829 29.9133 35.7391L33.0291 38.8549C33.4854 39.3113 33.4854 40.051 33.0291 40.5073C32.8012 40.7354 32.502 40.8494 32.203 40.8494Z" fill="#F8F8F8"/>
<path d="M63.8955 32.3452L36.9264 5.37595L21.504 2.2915L24.5885 17.7139L51.5576 44.6831L60.3704 53.4957L72.7083 41.1578L63.8955 32.3452Z" fill="#F8F8F8"/>
<path d="M63.8953 32.3459L51.5576 44.6836L60.3703 53.4962L72.7079 41.1586L63.8953 32.3459Z" fill="#F8F8F8"/>
<path d="M21.504 2.2915L36.9264 5.37594L24.5885 17.7139L21.504 2.2915Z" fill="#F8F8F8"/>
<path d="M21.504 2.2915L28.1136 3.61339L22.8259 8.90106L21.504 2.2915Z" fill="#3B3B3B"/>
<path d="M32.9603 9.34276L28.5541 13.749L55.5229 40.7179L59.9292 36.3116L32.9603 9.34276Z" fill="#F8F8F8"/>
<path d="M51.5578 44.6836L57.7795 38.4619L30.8107 11.4931L24.589 17.7148L51.5578 44.6836Z" fill="#E30613"/>
<path d="M60.3696 53.4956L66.5913 47.2739L57.7787 38.4613L51.557 44.683L60.3696 53.4956Z" fill="#F8F8F8"/>
<path d="M55.5237 40.7172L57.7795 38.4614L30.8107 11.4926L28.5549 13.7484L55.5237 40.7172Z" fill="#F8F8F8"/>
<path d="M66.4767 42.719C66.1778 42.719 65.8786 42.605 65.6505 42.3769L62.5347 39.2611C62.0784 38.8047 62.0784 38.065 62.5347 37.6087C62.991 37.1526 63.7309 37.1526 64.187 37.6087L67.3028 40.7245C67.7591 41.1809 67.7591 41.9207 67.3028 42.3769C67.0747 42.605 66.7757 42.719 66.4767 42.719Z" fill="#F8F8F8"/>
<path d="M72.7082 15.8002L64.3361 24.1723L51.1168 10.9531C49.9002 9.73626 49.9002 7.76341 51.1168 6.54675L55.0826 2.58096C56.2993 1.36429 58.2723 1.36429 59.489 2.58096L72.7082 15.8002Z" fill="#E30613"/>
<path d="M64.3371 24.1708L72.7091 15.7988L63.8965 6.98619L55.5245 15.3581L64.3371 24.1708Z" fill="#F8F8F8"/>
<path d="M67.4205 16.9688C67.1216 16.9688 66.8225 16.8548 66.5944 16.6267L63.0693 13.1015C62.613 12.645 62.613 11.9053 63.0693 11.449C63.5255 10.9929 64.2654 10.9929 64.7215 11.449L68.2467 14.9743C68.703 15.4307 68.703 16.1704 68.2467 16.6267C68.0186 16.8548 67.7196 16.9688 67.4205 16.9688Z" fill="#F8F8F8"/>
<path d="M53.2127 4.45068L51.1168 6.54653C49.9002 7.7632 49.9002 9.73619 51.1168 10.9529L64.3361 24.1721L68.6352 19.8729L53.2127 4.45068Z" fill="#E30613"/>
<path d="M64.3354 24.1725L68.6349 19.873L59.8222 11.0604L55.5228 15.3599L64.3354 24.1725Z" fill="#F8F8F8"/>
<path d="M3.1176 2.08825C2.78359 1.75424 2.28091 1.65422 1.84428 1.83503C1.40765 2.0157 1.12292 2.44192 1.12292 2.91454V73.3313C1.12292 73.9768 1.64613 74.4997 2.29132 74.4997H11.6387H20.9861H30.3336H39.681H49.0284H58.3758H72.7084C73.181 74.4997 73.6069 74.2151 73.7879 73.7784C73.9687 73.3417 73.8687 72.8392 73.5345 72.5049L3.1176 2.08825ZM58.3757 72.1631H49.0282H39.6808H30.3334H20.986H11.6387H3.45985V5.73535L69.8876 72.1631H58.3757Z" fill="#3B3B3B"/>
<path d="M11.6387 65.1525H50.2745C50.7474 65.1525 51.1738 64.8673 51.3544 64.4303C51.535 63.993 51.4344 63.4902 51.0992 63.1564L12.4635 24.6534C12.1292 24.3199 11.6269 24.2208 11.1908 24.4019C10.7548 24.583 10.4705 25.0088 10.4705 25.4811V63.9842C10.4703 64.6296 10.9935 65.1525 11.6387 65.1525ZM12.8072 28.2951L47.4469 62.8157H12.8072V28.2951Z" fill="#3B3B3B"/>
<path d="M64.7218 31.5188L37.7579 4.55509C37.7573 4.55451 37.7565 4.55378 37.7559 4.55306L37.7526 4.54974C37.7471 4.54425 37.7411 4.53991 37.7358 4.53456C37.7137 4.51332 37.6913 4.49236 37.6676 4.47285C37.6572 4.46418 37.6459 4.45666 37.6352 4.44842C37.6155 4.43354 37.596 4.41836 37.5754 4.40448C37.5609 4.3948 37.5457 4.38642 37.531 4.37731C37.5134 4.36662 37.4959 4.35549 37.4775 4.34566C37.4593 4.33583 37.4407 4.32759 37.422 4.31907C37.4061 4.31155 37.3906 4.3036 37.3743 4.29695C37.3518 4.28756 37.3286 4.27975 37.3057 4.27209C37.2924 4.26761 37.2796 4.26241 37.2662 4.25822C37.2379 4.24969 37.209 4.24275 37.1801 4.23639C37.1717 4.23452 37.1637 4.23191 37.1552 4.23018L37.15 4.22902C37.1496 4.22888 37.1491 4.22888 37.1486 4.22873L21.748 1.14877C21.705 1.13952 21.6613 1.13273 21.6169 1.12854C21.6107 1.12796 21.6047 1.12796 21.5986 1.12738C21.5886 1.12666 21.5785 1.12652 21.5685 1.12579C21.5471 1.12464 21.526 1.12305 21.5045 1.12305C21.4902 1.12305 21.476 1.1242 21.4617 1.12464C21.4502 1.12507 21.4386 1.12579 21.4272 1.12652C21.4211 1.12695 21.415 1.12695 21.4091 1.12738C21.4035 1.12782 21.3978 1.12767 21.3922 1.12825C21.3682 1.13056 21.3446 1.13446 21.3209 1.13822C21.3124 1.13967 21.3036 1.14068 21.2951 1.14227C21.2059 1.15846 21.1196 1.18462 21.0378 1.22032C21.031 1.22321 21.0242 1.22682 21.0174 1.23C20.9939 1.2407 20.9703 1.25154 20.9476 1.26382C20.9379 1.26917 20.929 1.27524 20.9194 1.28059C20.9096 1.28622 20.8999 1.29229 20.8902 1.29822C20.8774 1.30617 20.8639 1.31368 20.8514 1.32221C20.8376 1.33146 20.8249 1.34172 20.8116 1.35155C20.8089 1.35357 20.8061 1.3556 20.8035 1.35762C20.7959 1.3634 20.7879 1.36875 20.7804 1.37453C20.7737 1.37988 20.7668 1.38479 20.7604 1.39014C20.7496 1.39896 20.7398 1.40879 20.7291 1.41818C20.7112 1.43408 20.693 1.44998 20.6759 1.46689C20.6688 1.47397 20.6626 1.48148 20.656 1.48871C20.6366 1.50909 20.6175 1.52961 20.5996 1.55158C20.596 1.55592 20.5931 1.56069 20.5895 1.56502C20.5893 1.56517 20.5893 1.56531 20.5892 1.56546C20.583 1.57341 20.577 1.5815 20.571 1.58959C20.5577 1.60708 20.5445 1.62428 20.5322 1.64278C20.5308 1.6448 20.5298 1.64712 20.5283 1.64914C20.5224 1.65825 20.5171 1.66779 20.5114 1.67704C20.5056 1.68643 20.4999 1.69554 20.4945 1.70493C20.488 1.71635 20.4809 1.72733 20.4747 1.73889C20.4728 1.74236 20.4714 1.74598 20.4697 1.7493C20.4604 1.76693 20.4519 1.78514 20.4436 1.80336C20.4403 1.81044 20.4366 1.81723 20.4335 1.82417C20.4313 1.82937 20.4287 1.83429 20.4264 1.83963C20.411 1.8762 20.3978 1.91363 20.3861 1.95179C20.3857 1.95352 20.3854 1.9554 20.3847 1.95714C20.3727 1.99717 20.3631 2.03836 20.3555 2.0797C20.3534 2.09039 20.3521 2.10152 20.3506 2.11236C20.3472 2.13404 20.3433 2.15529 20.3413 2.17726C20.3402 2.18911 20.3402 2.20067 20.3394 2.21252C20.3386 2.22524 20.3378 2.23796 20.3374 2.25068C20.337 2.26427 20.3358 2.27756 20.3358 2.29129C20.3358 2.31211 20.3375 2.33277 20.3386 2.35344C20.3391 2.36457 20.3393 2.37541 20.3403 2.38654C20.3407 2.39275 20.3409 2.39897 20.3415 2.40518C20.3456 2.44768 20.3519 2.48959 20.3607 2.53107L21.6805 9.13022L23.4414 17.9351C23.4416 17.9365 23.4419 17.9378 23.4421 17.9393L23.4428 17.9429C23.4471 17.965 23.4532 17.9864 23.4588 18.0081C23.4652 18.0326 23.4724 18.0569 23.4804 18.0812C23.4878 18.1034 23.4948 18.1258 23.5037 18.1474C23.5089 18.1601 23.5149 18.1725 23.5204 18.1851C23.5297 18.2059 23.5388 18.2267 23.549 18.2468C23.5552 18.2591 23.5625 18.271 23.5691 18.2831C23.5804 18.3033 23.5918 18.3233 23.6044 18.3426C23.6116 18.3539 23.6191 18.3649 23.6268 18.376C23.6405 18.396 23.6548 18.4155 23.6699 18.4344C23.6777 18.4444 23.6855 18.4542 23.6936 18.4639C23.7105 18.4841 23.7283 18.5037 23.7468 18.5226C23.7524 18.5284 23.757 18.5346 23.7627 18.5402L50.7316 45.5092L59.5444 54.3218C59.7725 54.5499 60.0716 54.6639 60.3705 54.6639C60.6694 54.6639 60.9686 54.5499 61.1967 54.3218L73.5346 41.9841C73.7538 41.7648 73.8768 41.4676 73.8768 41.1578C73.8768 40.8479 73.7537 40.5509 73.5346 40.3315L64.7218 31.5188ZM51.5576 43.0305L26.2409 17.7139L28.5543 15.4006L53.871 40.7172L51.5576 43.0305ZM34.5564 6.09362L29.9312 10.7188C29.9308 10.7192 29.9304 10.7199 29.9298 10.7204L27.7297 12.9204C27.7293 12.9208 27.7286 12.9213 27.7282 12.9219L25.3062 15.3439L24.0945 9.28531L28.4979 4.88187L34.5564 6.09362ZM55.5234 39.0647L30.2066 13.748L31.5821 12.3725C31.5825 12.3721 31.5832 12.3716 31.5837 12.371L32.9608 10.994L58.2774 36.3106L55.5234 39.0647ZM25.7437 4.33121L23.5437 6.53126L22.9936 3.78112L23.7624 3.9349L25.7437 4.33121ZM59.9299 34.6585L34.613 9.34182L36.9264 7.02845L62.2431 32.3451L59.9299 34.6585ZM60.3704 51.8434L53.21 44.683L56.3495 41.5435L63.8955 33.9977L71.0559 41.1581L60.3704 51.8434Z" fill="#3B3B3B"/>
<path d="M54.6972 16.1858L63.5098 24.9986C63.729 25.2177 64.0261 25.3407 64.336 25.3407C64.6459 25.3407 64.9432 25.2176 65.1621 24.9986L73.5342 16.6265C73.9905 16.1701 73.9905 15.4304 73.5342 14.9741L64.7216 6.16143L60.3153 1.75482C59.506 0.94559 58.4303 0.5 57.2859 0.5C56.1416 0.5 55.0658 0.94559 54.2565 1.75468L50.2907 5.72047C48.6204 7.39096 48.6204 10.1089 50.2907 11.7794L54.6972 16.1858ZM64.3361 22.5201L57.1759 15.3595L63.8956 8.63986L71.056 15.8001L64.3361 22.5201ZM51.943 7.37289L55.9088 3.4071C56.2766 3.03927 56.7656 2.83678 57.2857 2.83678C57.8059 2.83678 58.295 3.03927 58.6627 3.4071L62.2429 6.98729L55.5232 13.7068L51.9429 10.1268C51.1839 9.36771 51.1839 8.13212 51.943 7.37289Z" fill="#3B3B3B"/>
</g>
<defs>
<clipPath id="clip0_95_131">
<rect width="74" height="74" fill="white" transform="translate(0.5 0.5)"/>
</clipPath>
</defs>
</svg>
