<svg width="28" height="28" viewBox="0 0 28 28" fill="none" xmlns="http://www.w3.org/2000/svg">
<rect x="1" y="1" width="26" height="26" rx="13" fill="#1C1C1C"/>
<rect x="1" y="1" width="26" height="26" rx="13" stroke="#E30613"/>
<path d="M14 1.5C20.9036 1.5 26.5 7.09644 26.5 14C26.5 20.9036 20.9036 26.5 14 26.5C7.09644 26.5 1.5 20.9036 1.5 14C1.5 7.09644 7.09644 1.5 14 1.5ZM13.999 7.33301C12.1901 7.33301 11.9627 7.34168 11.252 7.37402C10.5423 7.40652 10.0577 7.51874 9.63379 7.68359C9.1954 7.85384 8.82361 8.08158 8.45312 8.45215C8.08237 8.82263 7.85442 9.19459 7.68359 9.63281C7.51832 10.0568 7.40499 10.5416 7.37305 11.251C7.34124 11.9621 7.33301 12.1895 7.33301 14C7.33301 15.8104 7.34181 16.0371 7.37402 16.748C7.40666 17.4577 7.51889 17.9423 7.68359 18.3662C7.85401 18.8047 8.08145 19.1773 8.45215 19.5479C8.82247 19.9185 9.19475 20.1462 9.63281 20.3164C10.057 20.4813 10.5415 20.5944 11.251 20.627C11.9621 20.6593 12.1896 20.667 14 20.667C15.8104 20.667 16.0371 20.6593 16.748 20.627C17.4578 20.5945 17.943 20.4813 18.3672 20.3164C18.8053 20.1462 19.1767 19.9184 19.5469 19.5479C19.9177 19.1773 20.1456 18.8045 20.3164 18.3662C20.4803 17.9422 20.5926 17.4574 20.626 16.748C20.6579 16.0372 20.667 15.8102 20.667 14C20.667 12.1895 20.6579 11.9621 20.626 11.251C20.5926 10.5414 20.4803 10.0567 20.3164 9.63281C20.1456 9.19449 19.9176 8.82261 19.5469 8.45215C19.1761 8.08141 18.805 7.85371 18.3662 7.68359C17.9413 7.5188 17.4566 7.40652 16.7471 7.37402C16.0361 7.34167 15.8096 7.33301 13.999 7.33301Z" fill="white"/>
<path d="M13.4025 8.53503C13.58 8.53476 13.7786 8.53503 14.0011 8.53503C15.7806 8.53504 15.9917 8.54118 16.6945 8.57312C17.3445 8.60284 17.6977 8.71136 17.9327 8.80261C18.2437 8.92342 18.4653 9.06839 18.6984 9.30164C18.9316 9.53492 19.0763 9.75718 19.1974 10.0682C19.2886 10.303 19.3973 10.6558 19.4269 11.3055C19.4588 12.0083 19.4659 12.2198 19.4659 13.9989C19.4659 15.7775 19.4588 15.9888 19.4269 16.6913C19.3972 17.3413 19.2886 17.6948 19.1974 17.9296C19.0766 18.2405 18.9316 18.4621 18.6984 18.6952C18.4652 18.9283 18.2437 19.0725 17.9327 19.1932C17.698 19.2849 17.3445 19.394 16.6945 19.4237C15.9918 19.4556 15.7806 19.4618 14.0011 19.4618C12.221 19.4618 12.0095 19.4556 11.3068 19.4237C10.6568 19.3937 10.3036 19.2845 10.0685 19.1932C9.75757 19.0724 9.53511 18.9284 9.30188 18.6952C9.06854 18.4619 8.92397 18.2398 8.80286 17.9286C8.71162 17.6939 8.60296 17.3411 8.57336 16.6913C8.54142 15.9885 8.53528 15.7772 8.53528 13.9969C8.53528 12.2167 8.54142 12.0064 8.57336 11.3036C8.60309 10.654 8.71164 10.3013 8.80286 10.0663C8.92364 9.75529 9.06871 9.53292 9.30188 9.29968C9.53514 9.06643 9.75753 8.92175 10.0685 8.80066C10.3035 8.70899 10.6568 8.60005 11.3068 8.57019C11.9217 8.54242 12.1601 8.53447 13.4025 8.53308V8.53503ZM14.0001 10.576C12.1097 10.5763 10.5774 12.1094 10.5773 13.9999C10.5773 15.8904 12.1096 17.4225 14.0001 17.4227C15.8908 17.4227 17.424 15.8906 17.424 13.9999C17.4238 12.1093 15.8908 10.576 14.0001 10.576ZM17.4777 9.64539C17.0743 9.68622 16.759 10.0271 16.7589 10.4413C16.7589 10.883 17.118 11.2411 17.5597 11.2411C18.0012 11.2408 18.3595 10.8828 18.3595 10.4413C18.3594 9.99984 18.0011 9.64172 17.5597 9.64148L17.4777 9.64539Z" fill="white"/>
<path d="M14.0007 11.7778C15.2279 11.7778 16.2229 12.7726 16.2229 14C16.2229 15.2273 15.2279 16.2223 14.0007 16.2223C12.7733 16.2223 11.7784 15.2273 11.7784 14C11.7784 12.7726 12.7733 11.7778 14.0007 11.7778V11.7778Z" fill="white"/>
</svg>
