<svg width="28" height="28" viewBox="0 0 28 28" fill="none" xmlns="http://www.w3.org/2000/svg">
<rect x="1" y="1" width="26" height="26" rx="13" fill="#1C1C1C"/>
<rect x="1" y="1" width="26" height="26" rx="13" stroke="#E30613"/>
<path d="M14 1.5C20.9036 1.5 26.5 7.09644 26.5 14C26.5 20.9036 20.9036 26.5 14 26.5C7.09644 26.5 1.5 20.9036 1.5 14C1.5 7.09644 7.09644 1.5 14 1.5ZM7.50098 20.3643H10.334V11.8525H7.50098V20.3643ZM17.2881 11.6533C15.7841 11.6533 15.1104 12.4791 14.7344 13.0586V11.8535H11.9014C11.9385 12.6503 11.9016 20.306 11.9014 20.3643H14.7344V15.6113C14.7344 15.357 14.7532 15.103 14.8281 14.9209C15.0328 14.4128 15.4988 13.8868 16.2812 13.8867C17.3066 13.8867 17.7167 14.6669 17.7168 15.8105V20.3643H20.5498V15.4844C20.5498 12.8701 19.1522 11.6533 17.2881 11.6533ZM8.93555 7.75C7.96687 7.75018 7.33322 8.38553 7.33301 9.21973C7.33301 10.037 7.94839 10.6914 8.89941 10.6914H8.91699C9.90473 10.6914 10.5205 10.037 10.5205 9.21973C10.5019 8.38541 9.90446 7.75 8.93555 7.75Z" fill="#F8F8F8"/>
</svg>
