<svg width="87" height="83" viewBox="0 0 91 89" fill="none" xmlns="http://www.w3.org/2000/svg">
<g clip-path="url(#clip0_31_135)">
<path d="M51.0683 70.4189L48.5264 80.6339H30.0054L32.5495 70.4189H51.0683Z" fill="#F8F8F8"/>
<path d="M61.9718 8.36768H66.8877C64.3192 8.36768 62.236 10.4277 62.236 12.9677V16.2774V36.6263V43.4079V46.91C62.236 49.45 64.3192 51.5101 66.8877 51.5101H61.9718C59.4033 51.5101 57.3201 49.45 57.3201 46.91V21.4629V12.9698C57.3201 10.4277 59.4031 8.36768 61.9718 8.36768Z" fill="#F8F8F8"/>
<path d="M88.965 12.9677V16.2774H62.2363V12.9677C62.2363 10.4277 64.3195 8.36768 66.8881 8.36768H79.3971H84.313C86.8818 8.36768 88.965 10.4277 88.965 12.9677Z" fill="#F8F8F8"/>
<path d="M86.0129 43.4077H88.9645V46.9099C88.9645 49.4499 86.8813 51.5099 84.3127 51.5099H83.479H79.3966H66.8876C64.319 51.5099 62.2358 49.4499 62.2358 46.9099V43.4077H79.3516H86.0129Z" fill="#F8F8F8"/>
<path d="M77.8257 34.4976L86.0127 43.4079H79.3516L74.4951 38.1233L77.8257 34.4976Z" fill="#F8F8F8"/>
<path d="M74.4951 38.1235L79.3516 43.4081H62.2358V36.6265H62.6967L67.9076 30.959L74.4951 38.1235Z" fill="#F8F8F8"/>
<path d="M79.9663 22.9072C82.1355 22.9072 83.8951 24.6473 83.8951 26.7923C83.8951 28.9374 82.1355 30.6774 79.9663 30.6774C77.7972 30.6774 76.0376 28.9374 76.0376 26.7923C76.0376 24.6473 77.7972 22.9072 79.9663 22.9072Z" fill="#F95428"/>
<path d="M88.9645 16.2773V43.4078H86.013L77.8259 34.4973L74.4953 38.123L67.9079 30.9586L62.697 36.6262H62.2361V16.2773H88.9645ZM83.8948 26.7921C83.8948 24.6471 82.1352 22.907 79.966 22.907C77.7969 22.907 76.0373 24.6471 76.0373 26.7921C76.0373 28.9372 77.7969 30.6772 79.966 30.6772C82.1352 30.6772 83.8948 28.9372 83.8948 26.7921Z" fill="white"/>
<path d="M83.479 51.5102V60.9655H54.0137L39.7922 45.4861L34.0241 51.7633L22.617 39.3586L8.68433 53.5195V25.753C8.68433 23.383 10.6281 21.4629 13.0226 21.4629H14.5446H46.566H57.3197V46.9101C57.3197 49.4501 59.4029 51.5102 61.9714 51.5102H66.8874H79.3964H83.479ZM50.298 32.1458C50.298 28.4308 47.2542 25.4189 43.4975 25.4189C39.7409 25.4189 36.6951 28.4308 36.6951 32.1458C36.6951 35.8607 39.7409 38.8707 43.4975 38.8707C47.2542 38.8707 50.298 35.8607 50.298 32.1458Z" fill="white"/>
<path d="M43.4977 25.4189C47.2544 25.4189 50.2983 28.4309 50.2983 32.1458C50.2983 35.8607 47.2544 38.8707 43.4977 38.8707C39.7411 38.8707 36.6953 35.8607 36.6953 32.1458C36.6953 28.4309 39.7411 25.4189 43.4977 25.4189Z" fill="#F95428"/>
<path d="M39.7924 45.4863L54.0139 60.9657H42.4818L34.0244 51.7635L39.7924 45.4863Z" fill="#F8F8F8"/>
<path d="M34.0243 51.7634L42.4817 60.9655H8.68433V53.5196L22.617 39.3589L34.0243 51.7634Z" fill="#F8F8F8"/>
<path d="M7.06637 21.4629H13.0228C10.6282 21.4629 8.68445 23.3832 8.68445 25.753V53.5195V60.9655V66.1306C8.68445 68.4985 10.6282 70.4188 13.0228 70.4188H7.06637C4.28883 70.4188 2.03564 68.1928 2.03564 65.4461V26.4356C2.03564 23.689 4.28883 21.4629 7.06637 21.4629Z" fill="#F8F8F8"/>
<path d="M83.479 60.9658V66.131C83.479 68.4989 81.5371 70.4192 79.1406 70.4192H71.8015H51.0683H32.5495H14.5446H13.0226C10.6281 70.4192 8.68433 68.4989 8.68433 66.131V60.9658H42.4817H54.0137H83.479Z" fill="#F8F8F8"/>
<path d="M43.4974 23.9004C38.9001 23.9004 35.1597 27.5991 35.1597 32.1453C35.1597 36.6915 38.9 40.3904 43.4974 40.3904C48.0948 40.3904 51.8349 36.6916 51.8349 32.1453C51.8349 27.599 48.0946 23.9004 43.4974 23.9004ZM43.4974 37.3518C40.5943 37.3518 38.2322 35.0161 38.2322 32.1451C38.2322 29.2742 40.5942 26.9386 43.4974 26.9386C46.4004 26.9386 48.7624 29.2743 48.7624 32.1451C48.7624 35.0159 46.4003 37.3518 43.4974 37.3518Z" fill="#3B3B3B"/>
<path d="M79.9665 21.3882C76.9534 21.3882 74.502 23.8124 74.502 26.792C74.502 29.7716 76.9534 32.1959 79.9665 32.1959C82.9796 32.1959 85.4311 29.7716 85.4311 26.792C85.4309 23.8124 82.9794 21.3882 79.9665 21.3882ZM79.9665 29.1575C78.6476 29.1575 77.5745 28.0963 77.5745 26.792C77.5745 25.4878 78.6474 24.4265 79.9665 24.4265C81.2856 24.4265 82.3586 25.4878 82.3586 26.792C82.3584 28.0964 81.2854 29.1575 79.9665 29.1575Z" fill="#3B3B3B"/>
<path d="M84.3121 6.84852L61.9719 6.84766C58.5598 6.84766 55.784 9.59364 55.784 12.9689V19.9433H46.5723C46.5702 19.9433 46.5684 19.9431 46.5663 19.9431H13.0231C13.0192 19.9431 13.0154 19.9433 13.0112 19.9433H7.06548C3.44524 19.9433 0.5 22.856 0.5 26.4358V65.4456C0.5 69.0256 3.44524 71.9381 7.06548 71.9381H30.5882L28.5141 80.2694C28.5124 80.2765 28.5117 80.2838 28.5101 80.291C28.5016 80.3275 28.495 80.3645 28.4892 80.402C28.4864 80.4201 28.483 80.438 28.4807 80.4563C28.4765 80.4923 28.4746 80.5289 28.473 80.5661C28.4721 80.5847 28.4704 80.6037 28.4702 80.6225C28.4702 80.6261 28.4697 80.6296 28.4697 80.6331C28.4697 80.6784 28.4725 80.7233 28.4763 80.7676C28.477 80.7733 28.4765 80.7791 28.4772 80.7848C28.4827 80.8404 28.4918 80.8954 28.5032 80.9493C28.5046 80.9562 28.5069 80.9628 28.5085 80.9699C28.5192 81.0164 28.5317 81.0621 28.5465 81.1067C28.5507 81.1194 28.556 81.1321 28.5605 81.1448C28.5744 81.1831 28.5894 81.2208 28.6062 81.2576C28.6133 81.2728 28.6208 81.2879 28.6284 81.3028C28.6453 81.3364 28.663 81.3694 28.682 81.4014C28.6915 81.4172 28.7008 81.4328 28.7108 81.4483C28.7309 81.4794 28.7525 81.5095 28.7748 81.5391C28.7824 81.5491 28.7887 81.5601 28.7968 81.5702C28.8003 81.5743 28.8043 81.5783 28.8079 81.5825C28.8349 81.6159 28.8636 81.6475 28.8933 81.6785C28.9012 81.6868 28.9084 81.6957 28.9167 81.7038C28.9548 81.7417 28.9947 81.7774 29.0367 81.8109C29.0478 81.8198 29.0594 81.8276 29.0707 81.8363C29.1026 81.8606 29.1352 81.8841 29.1689 81.906C29.1835 81.9154 29.1986 81.9239 29.2136 81.9328C29.2457 81.9521 29.2784 81.9705 29.3124 81.9872C29.328 81.995 29.3436 82.0023 29.3595 82.0096C29.3941 82.0256 29.4291 82.04 29.4651 82.0534C29.4809 82.0593 29.4966 82.0652 29.5124 82.0706C29.5497 82.0831 29.5876 82.0938 29.6259 82.1035C29.6416 82.1075 29.6567 82.112 29.6722 82.1153C29.7128 82.1242 29.7539 82.131 29.7958 82.1363C29.8096 82.1381 29.8234 82.141 29.8376 82.1426C29.893 82.1485 29.949 82.1522 30.0058 82.1522H48.5261H60.6852C61.5338 82.1522 62.2213 81.472 62.2213 80.6331C62.2213 79.7942 61.5337 79.114 60.6852 79.114H50.4861L52.2722 71.9386L79.1404 71.9378C82.3795 71.9378 85.0151 69.3328 85.0151 66.1305V52.989C88.0974 52.6423 90.5002 50.049 90.5002 46.9098V12.9684C90.5007 9.59364 87.7244 6.84852 84.3121 6.84852ZM87.4282 12.9684V14.7593H63.7715V12.9684C63.7715 11.2694 65.1694 9.88707 66.8876 9.88707H84.3121C86.0304 9.88672 87.4282 11.269 87.4282 12.9684ZM63.7715 37.5939L63.8327 37.6489L67.9072 33.216L75.8803 41.8889H63.7717V37.5939H63.7715ZM80.0323 41.8889L76.5703 38.1229L77.8257 36.7568L82.5418 41.8887L80.0323 41.8889ZM86.6934 41.8889L78.9627 33.4762C78.6714 33.1595 78.2585 32.9788 77.8257 32.9788C77.3929 32.9788 76.98 33.1594 76.6888 33.4762L74.4939 35.8643L69.0436 29.9355C68.7525 29.619 68.3396 29.4382 67.9068 29.4382C67.4742 29.4382 67.0613 29.6188 66.7702 29.9357L63.7715 33.1981V17.7973H87.428V41.8887L86.6934 41.8889ZM58.8563 12.9691C58.8563 11.4201 60.0181 10.1377 61.5238 9.92183C61.0003 10.8198 60.6989 11.8595 60.6989 12.9685V46.9094C60.6989 48.0176 60.9998 49.0571 61.5229 49.9548C60.0175 49.7383 58.8561 48.4572 58.8561 46.9094V12.9691H58.8563ZM61.9719 53.0288L81.9431 53.0293V59.4453H54.6943L40.9284 44.4651C40.6371 44.1483 40.2244 43.9676 39.7915 43.9676C39.3587 43.9676 38.9458 44.1482 38.6547 44.4651L34.0239 49.5039L23.7541 38.3362C23.469 38.0262 23.0671 37.8463 22.6435 37.8394C22.2157 37.838 21.8119 37.9986 21.5166 38.299L10.2211 49.7792V25.7523C10.2211 24.2264 11.475 22.9849 13.0173 22.9818H55.784V46.9094C55.7838 50.2835 58.5598 53.0288 61.9719 53.0288ZM10.221 54.1359L22.5795 41.575L39.0094 59.4453H10.221V54.1359ZM43.1614 59.4453L36.1 51.7622L39.7913 47.7456L50.5427 59.4452H43.1614V59.4453ZM3.5725 65.4456V26.4358C3.5725 24.5312 5.13943 22.9816 7.06548 22.9816H7.8609C7.40685 23.8056 7.14845 24.7498 7.14845 25.7521V66.1298C7.14845 67.1321 7.40667 68.0758 7.8609 68.8996H7.06548C5.13943 68.8997 3.5725 67.3502 3.5725 65.4456ZM47.3222 79.1134H31.9661L33.7523 71.9381H49.1083L47.3222 79.1134ZM79.1409 68.899H13.0231C11.478 68.899 10.221 67.657 10.221 66.1301V62.4837H81.9431V66.1301C81.9431 67.6567 80.6859 68.899 79.1409 68.899ZM84.3121 49.9907L66.8757 49.9901C65.1629 49.9836 63.7714 48.6043 63.7714 46.9091V44.9271H87.428V46.9091C87.4282 48.6085 86.0304 49.9907 84.3121 49.9907Z" fill="#3B3B3B"/>
</g>
<defs>
<clipPath id="clip0_31_135">
<rect width="90" height="89" fill="white" transform="translate(0.5)"/>
</clipPath>
</defs>
</svg>
