<svg width="83" height="83" viewBox="0 0 83 83" fill="none" xmlns="http://www.w3.org/2000/svg">
<g clip-path="url(#clip0_31_118)">
<path d="M42.0773 3.94301L46.919 2.11338C47.4591 1.90934 48.0669 2.0056 48.5174 2.36659L52.5568 5.60287C52.8672 5.85159 53.2577 5.97843 53.6549 5.95969L58.8252 5.71578C59.4019 5.68855 59.9501 5.96786 60.2671 6.45057L63.1087 10.7767C63.327 11.1092 63.659 11.3504 64.0428 11.4553L69.0353 12.8209C69.5922 12.9733 70.0272 13.4082 70.1795 13.9651L71.5451 18.9577C71.65 19.3412 71.8912 19.6734 72.2237 19.8917L76.5499 22.7333C77.0324 23.0504 77.3119 23.5985 77.2846 24.1752L77.0407 29.3455C77.022 29.7427 77.149 30.1332 77.3976 30.4436L80.6338 34.483C80.9948 34.9336 81.0911 35.5414 80.887 36.0814L79.0574 40.9231C78.9168 41.2951 78.9168 41.7056 79.0574 42.0777L80.887 46.9193C81.0911 47.4594 80.9948 48.0672 80.6338 48.5177L77.3976 52.5572C77.1488 52.8675 77.022 53.258 77.0407 53.6552L77.2846 58.8255C77.3119 59.4022 77.0326 59.9504 76.5499 60.2674L72.2237 63.109C71.8912 63.3273 71.65 63.6593 71.5451 64.0431L70.1795 69.0356C70.0272 69.5925 69.5922 70.0275 69.0353 70.1798L64.0428 71.5454C63.6592 71.6503 63.327 71.8915 63.1087 72.224L60.2671 76.5502C59.95 77.0327 59.4019 77.3122 58.8252 77.285L53.6549 77.041C53.2577 77.0223 52.8672 77.1493 52.5568 77.3979L48.5174 80.6341C48.0669 80.9951 47.4591 81.0914 46.919 80.8874L42.0773 79.0577C41.7053 78.9171 41.2948 78.9171 40.9228 79.0577L36.0811 80.8874C35.541 81.0914 34.9332 80.9951 34.4827 80.6341L30.4433 77.3979C30.1329 77.1491 29.7424 77.0223 29.3452 77.041L24.1749 77.285C23.5982 77.3122 23.05 77.0329 22.733 76.5502L19.8914 72.224C19.6731 71.8915 19.3411 71.6503 18.9573 71.5454L13.9648 70.1798C13.4079 70.0275 12.9729 69.5925 12.8206 69.0356L11.455 64.0431C11.3501 63.6595 11.1089 63.3273 10.7764 63.109L6.45042 60.2671C5.96787 59.95 5.6884 59.4019 5.71562 58.8252L5.95954 53.6549C5.97828 53.2575 5.85128 52.8672 5.60271 52.5568L2.36644 48.5174C2.00544 48.0669 1.90919 47.4591 2.11323 46.919L3.94285 42.0773C4.08347 41.7053 4.08347 41.2948 3.94285 40.9228L2.11323 36.0808C1.90919 35.5407 2.00544 34.9329 2.36644 34.4824L5.60271 30.4429C5.85144 30.1326 5.97828 29.7421 5.95954 29.3449L5.71562 24.1746C5.6884 23.5979 5.96771 23.0496 6.45042 22.7327L10.7766 19.891C11.109 19.6728 11.3502 19.3407 11.4551 18.957L12.8208 13.9645C12.9731 13.4076 13.4081 12.9726 13.965 12.8203L18.9575 11.4547C19.3411 11.3498 19.6732 11.1086 19.8915 10.7761L22.7332 6.44993C23.0503 5.96738 23.5983 5.68791 24.1751 5.71514L29.3454 5.95905C29.7426 5.97795 30.133 5.85079 30.4434 5.60222L34.4829 2.36595C34.9334 2.00496 35.5412 1.9087 36.0812 2.11274L40.9229 3.94237C41.2947 4.08346 41.7053 4.08346 42.0773 3.94301Z" fill="#F8F8F8"/>
<path d="M53.8258 70.2596C31.135 70.2596 12.7402 51.865 12.7402 29.1741C12.7402 23.097 14.0702 17.3339 16.4381 12.144L13.9651 12.8205C13.4082 12.9729 12.9733 13.4078 12.821 13.9647L11.4551 18.9572C11.3502 19.3408 11.109 19.673 10.7766 19.8914L6.45042 22.7331C5.96787 23.0502 5.6884 23.5983 5.71562 24.1748L5.95954 29.3451C5.97828 29.7423 5.85128 30.1328 5.60271 30.4432L2.36644 34.4826C2.00544 34.9332 1.90919 35.5409 2.11323 36.0808L3.94285 40.9225C4.08347 41.2946 4.08347 41.705 3.94285 42.0771L2.11323 46.9188C1.90919 47.4588 2.00544 48.0666 2.36644 48.5171L5.60271 52.5566C5.85144 52.867 5.97828 53.2574 5.95954 53.6546L5.71562 58.8249C5.6884 59.4017 5.96771 59.9499 6.45042 60.2668L10.7766 63.1085C11.1089 63.3268 11.3502 63.6588 11.4551 64.0425L12.821 69.0351C12.9733 69.5919 13.4082 70.0269 13.9651 70.1795L18.9577 71.5453C19.3412 71.6503 19.6734 71.8914 19.8917 72.2239L22.7333 76.5501C23.0505 77.0326 23.5985 77.3119 24.1752 77.2849L29.3454 77.041C29.7427 77.0222 30.1332 77.1492 30.4436 77.3978L34.483 80.6341C34.9336 80.9949 35.5414 81.0913 36.0812 80.8873L40.9229 79.0576C41.295 78.917 41.7055 78.917 42.0775 79.0576L46.9192 80.8873C47.4592 81.0913 48.067 80.995 48.5174 80.6341L52.5568 77.3978C52.8672 77.1492 53.2577 77.0224 53.655 77.041L58.8252 77.2849C59.4019 77.3121 59.9501 77.0328 60.2671 76.5501L63.1087 72.2239C63.327 71.8916 63.659 71.6503 64.0428 71.5453L69.0353 70.1795C69.5922 70.0272 70.0272 69.5922 70.1795 69.0351L70.856 66.5621C65.6658 68.9298 59.9027 70.2596 53.8258 70.2596Z" fill="#F8F8F8"/>
<path d="M41.4999 72.9988C58.8962 72.9988 72.9988 58.8962 72.9988 41.4999C72.9988 24.1035 58.8962 10.001 41.4999 10.001C24.1035 10.001 10.001 24.1035 10.001 41.4999C10.001 58.8962 24.1035 72.9988 41.4999 72.9988Z" fill="white"/>
<path d="M54.3984 63.9104C54.1685 63.5272 53.769 63.2828 53.3243 63.2373C37.4512 61.6143 25.0657 48.2145 25.0657 31.9131C25.0657 27.783 25.8648 23.8411 27.3117 20.228C27.681 19.306 26.6496 18.4716 25.8354 19.0403C17.9422 24.5528 13.0855 34.1108 14.2931 44.714C15.6972 57.0425 25.553 67.0204 37.8541 68.6483C43.672 69.4184 49.1488 68.3087 53.8578 65.8997C54.5802 65.5303 54.816 64.6065 54.3984 63.9104Z" fill="#F8F8F8"/>
<path d="M62.0496 36.7066C62.0496 34.8156 60.5167 33.2828 58.6258 33.2828H46.7727C49.9608 30.7015 52.1258 27.2391 52.4388 24.3915C52.6707 22.2801 51.2108 20.2747 49.0868 20.255C47.1819 20.2374 45.6316 21.7607 45.6316 23.6612C45.6316 24.8943 42.9554 28.5535 37.9401 30.1817C37.136 30.4426 36.435 30.9392 35.8563 31.5555C35.43 32.0092 34.2942 33.3912 33.1804 34.1447C32.9783 33.6406 32.4897 33.2826 31.9133 33.2826H23.6962C22.9399 33.2826 22.3267 33.8959 22.3267 34.6521V56.5644C22.3267 57.3206 22.9399 57.9339 23.6962 57.9339H31.9133C32.6695 57.9339 33.2828 57.3206 33.2828 56.5644H55.2019C56.7148 56.5644 57.9409 55.3379 57.9409 53.8254C57.9409 52.3125 56.7148 51.0864 55.2019 51.0864H56.5714C58.0843 51.0864 59.3104 49.8599 59.3104 48.3474C59.3104 46.8346 58.0843 45.6084 56.5714 45.6084H57.9409C59.4538 45.6084 60.6799 44.3819 60.6799 42.8694C60.6799 41.3566 59.4538 40.1304 57.9409 40.1304H58.6258C60.5166 40.1303 62.0496 38.5976 62.0496 36.7066Z" fill="white"/>
<path d="M53.8258 48.3477C53.0695 48.3477 52.4563 48.9609 52.4563 49.7172C52.4563 50.4734 53.0695 51.0866 53.8258 51.0866H55.2022H56.4253C57.7897 51.0866 59.0543 50.1542 59.2733 48.8075C59.2987 48.6508 59.2972 48.4993 59.2969 48.3477H53.8258Z" fill="white"/>
<path d="M53.8258 42.8696C53.0695 42.8696 52.4563 43.4829 52.4563 44.2391C52.4563 44.9954 53.0695 45.6086 53.8258 45.6086H56.5717H57.7948C59.1592 45.6086 60.4238 44.6762 60.6428 43.3294C60.6681 43.1728 60.6667 43.0213 60.6665 42.8696H53.8258Z" fill="white"/>
<path d="M53.8258 37.3916C53.0695 37.3916 52.4563 38.0048 52.4563 38.7611C52.4563 39.5174 53.0695 40.1306 53.8258 40.1306H57.9412H58.626C60.2803 40.1306 61.6427 38.951 61.9625 37.3916H53.8258Z" fill="white"/>
<path d="M37.3914 52.4562V35.681C37.3914 35.0849 37.775 34.5634 38.3413 34.378C41.1011 33.4731 48.9659 30.0965 49.6404 20.85C49.412 20.6157 49.2891 20.4897 49.0607 20.2554C47.1679 20.2519 45.6315 21.7697 45.6315 23.6617C45.6315 24.8948 42.9553 28.554 37.94 30.1822C37.1358 30.4431 36.4348 30.9397 35.8562 31.556C35.443 31.9958 34.3627 33.3031 33.2826 34.0697V53.8257H29.1741C27.6613 53.8257 26.4351 52.5996 26.4351 51.0867V33.283H23.6962C22.9399 33.283 22.3267 33.8962 22.3267 34.6525V56.5647C22.3267 57.321 22.9399 57.9342 23.6962 57.9342H31.9133C32.6696 57.9342 33.2828 57.321 33.2828 56.5647H55.2019C56.7148 56.5647 57.9409 55.3382 57.9409 53.8257H38.7608C38.0045 53.8257 37.3914 53.2127 37.3914 52.4562Z" fill="white"/>
<path d="M63.3336 36.7067C63.3336 34.1108 61.2218 31.9989 58.6258 31.9989H49.9738C52.0759 29.6362 53.4497 26.9457 53.7151 24.532C53.8772 23.0577 53.4217 21.5944 52.4651 20.517C51.5908 19.5322 50.3952 18.9834 49.0986 18.9714C49.0835 18.9712 49.0685 18.9712 49.0536 18.9712C47.7994 18.9712 46.6222 19.4542 45.7339 20.3344C44.8453 21.2148 44.3536 22.3876 44.3479 23.6393C44.3022 23.9133 43.8201 24.8581 42.6406 25.9798C41.6749 26.8984 40.0067 28.1613 37.5436 28.9609C36.5779 29.2745 35.6953 29.8519 34.9204 30.677C34.5138 31.1098 33.9049 31.7075 33.151 32.3074C32.7811 32.1114 32.3603 31.9993 31.9133 31.9993H23.6962C22.233 31.9993 21.0427 33.1895 21.0427 34.6527V56.565C21.0427 58.0282 22.233 59.2185 23.6962 59.2185H31.9133C32.9108 59.2185 33.7806 58.6646 34.2338 57.849H55.202C57.4203 57.849 59.2249 56.0443 59.2249 53.826C59.2249 53.0801 59.0211 52.3812 58.6658 51.7816C59.8217 51.074 60.5944 49.7995 60.5944 48.3478C60.5944 47.602 60.3906 46.9031 60.0353 46.3035C61.1912 45.5959 61.9639 44.3214 61.9639 42.8697C61.9639 42.0302 61.7054 41.2499 61.2639 40.6041C62.512 39.7566 63.3336 38.3258 63.3336 36.7067ZM58.6258 38.8466H57.941C57.232 38.8466 56.657 39.4214 56.657 40.1306C56.657 40.8396 57.2318 41.4145 57.941 41.4145C58.7433 41.4145 59.3961 42.0673 59.3961 42.8697C59.3961 43.6721 58.7433 44.3249 57.941 44.3249H56.5715C55.8625 44.3249 55.2875 44.8997 55.2875 45.6089C55.2875 46.318 55.8623 46.8928 56.5715 46.8928C57.3739 46.8928 58.0266 47.5456 58.0266 48.348C58.0266 49.1504 57.3739 49.8032 56.5715 49.8032H55.202C54.493 49.8032 53.918 50.378 53.918 51.0872C53.918 51.7963 54.4928 52.3711 55.202 52.3711C56.0044 52.3711 56.6572 53.0239 56.6572 53.8263C56.6572 54.6287 56.0044 55.2815 55.202 55.2815H34.5668V42.8702C34.5668 42.1612 33.992 41.5862 33.2828 41.5862C32.5738 41.5862 31.9989 42.161 31.9989 42.8702V56.5653C31.9989 56.6126 31.9606 56.6508 31.9133 56.6508H23.6962C23.6489 56.6508 23.6107 56.6126 23.6107 56.5653V34.6524C23.6107 34.6052 23.6489 34.5669 23.6962 34.5669H31.9133C31.9606 34.5669 31.9989 34.6052 31.9989 34.6524V37.3916C31.9989 38.1006 32.5737 38.6755 33.2828 38.6755C33.9918 38.6755 34.5668 38.1007 34.5668 37.3916V34.6524C34.5668 34.5901 34.5617 34.5291 34.5574 34.4679C35.52 33.7227 36.2899 32.9693 36.7922 32.4347C37.2674 31.9285 37.7869 31.5816 38.3364 31.4033C41.3585 30.4222 43.3924 28.8424 44.5662 27.6899C46.0373 26.2455 46.9155 24.7397 46.9155 23.6617C46.9155 23.0922 47.1376 22.5584 47.5411 22.1586C47.9495 21.7539 48.4903 21.5401 49.0747 21.5393C49.7945 21.546 50.2711 21.9142 50.5445 22.222C51.0131 22.7498 51.2437 23.5086 51.1622 24.2515C50.8818 26.8027 48.8415 29.9561 45.9645 32.2851C45.5418 32.6274 45.3806 33.1988 45.562 33.7115C45.7435 34.2242 46.2284 34.5669 46.7723 34.5669H58.6255C59.8055 34.5669 60.7653 35.5267 60.7653 36.7067C60.7653 37.8868 59.8057 38.8466 58.6258 38.8466Z" fill="#E30613"/>
<path d="M27.8049 51.1582C27.0958 51.1582 26.5142 51.7399 26.5142 52.4489C26.5142 53.1579 27.0958 53.7396 27.8049 53.7396C28.5139 53.7396 29.0956 53.1579 29.0956 52.4489C29.0956 51.7399 28.514 51.1582 27.8049 51.1582Z" fill="#E30613"/>
<path d="M80.2114 41.4999L82.4171 35.6634C82.5777 35.2388 82.502 34.761 82.218 34.4066L78.3168 29.5372L78.6108 23.3047C78.6323 22.8515 78.4125 22.4202 78.0333 22.1712L72.8183 18.7456L71.1722 12.7272C71.0524 12.2894 70.7103 11.9473 70.2726 11.8276L64.2542 10.1815L60.8287 4.9667C60.5795 4.58729 60.1483 4.36851 59.6951 4.38917L53.4626 4.68322L48.5932 0.781975C48.2389 0.498178 47.7612 0.422424 47.3365 0.582901L41.4999 2.78857L35.6636 0.583061C35.2387 0.422424 34.7612 0.498178 34.4069 0.782135L29.5375 4.68338L23.305 4.38933C22.8495 4.36787 22.4205 4.58761 22.1714 4.96686L18.7458 10.1819L12.7277 11.828C12.2898 11.9477 11.9477 12.2898 11.8281 12.7275L10.182 18.7459L4.96697 22.1715C4.58756 22.4207 4.36798 22.8518 4.38944 23.3051L4.68349 29.5375L0.782244 34.4068C0.498447 34.761 0.422693 35.2388 0.58317 35.6635L2.78868 41.4999L0.58301 47.3364C0.422373 47.7609 0.498127 48.2387 0.782084 48.5931L4.68333 53.4625L4.38928 59.695C4.36782 60.1482 4.58756 60.5795 4.96681 60.8286L10.1818 64.2541L11.8279 70.2725C11.9477 70.7104 12.2898 71.0525 12.7275 71.1721L18.7458 72.8182L22.1714 78.0332C22.4206 78.4126 22.8526 78.6309 23.305 78.6107L29.5375 78.3167L34.4069 82.2179C34.7612 82.5019 35.2391 82.5776 35.6636 82.417L41.5002 80.2113L47.3368 82.417C47.4841 82.4726 47.6377 82.4998 47.7905 82.4998C48.0781 82.4998 48.3621 82.4032 48.5934 82.2179L53.4628 78.3167L59.6952 78.6107C60.1499 78.6309 60.5796 78.4124 60.8288 78.0332L64.2544 72.8182L70.2728 71.1721C70.7106 71.0523 71.0527 70.7102 71.1724 70.2725L72.8184 64.2541L78.0334 60.8286C78.4129 60.5794 78.6324 60.1482 78.611 59.695L78.3169 53.4625L82.2182 48.5931C82.502 48.2388 82.5777 47.7611 82.4173 47.3364L80.2114 41.4999ZM77.6379 41.9538L79.7561 47.5591L76.0094 52.2355C75.8138 52.4795 75.7141 52.7865 75.7288 53.0988L76.0113 59.0843L71.0029 62.3741C70.7417 62.5456 70.5518 62.8068 70.4693 63.1085L68.8884 68.8884L63.1085 70.4693C62.8069 70.5518 62.5459 70.7416 62.374 71.003L59.0842 76.0114L53.0987 75.7289C52.7863 75.7144 52.4794 75.8139 52.2355 76.0094L47.5591 79.7561L41.9538 77.6379C41.8075 77.5827 41.6536 77.5551 41.4999 77.5551C41.3461 77.5551 41.1922 77.5828 41.046 77.6379L35.4407 79.7561L30.7643 76.0094C30.5204 75.8139 30.2129 75.7144 29.9011 75.7289L23.9155 76.0114L20.6258 71.003C20.4542 70.7417 20.193 70.5518 19.8913 70.4693L14.1114 68.8884L12.5305 63.1085C12.448 62.807 12.2582 62.5459 11.9969 62.3741L6.98862 59.0843L7.27113 53.0988C7.28587 52.7863 7.18609 52.4795 6.99054 52.2355L3.24385 47.5591L5.36207 41.9538C5.47274 41.6614 5.47274 41.3385 5.36207 41.0461L3.24385 35.4408L6.99054 30.7643C7.18609 30.5204 7.28587 30.2134 7.27113 29.9011L6.98862 23.9156L11.9969 20.6258C12.2581 20.4543 12.448 20.1931 12.5305 19.8913L14.1114 14.1115L19.8913 12.5306C20.1929 12.4481 20.4539 12.2583 20.6258 11.9969L23.9155 6.98867L29.9011 7.27119C30.213 7.28576 30.5204 7.18614 30.7643 6.99059L35.4407 3.2439L41.046 5.36212C41.3386 5.47279 41.6613 5.47279 41.9538 5.36212L47.5591 3.2439L52.2355 6.99059C52.4794 7.1863 52.7866 7.28592 53.0987 7.27119L59.0842 6.98867L62.374 11.9969C62.5455 12.2581 62.8068 12.4481 63.1085 12.5306L68.8884 14.1115L70.4693 19.8913C70.5518 20.1929 70.7415 20.454 71.0029 20.6258L76.0112 23.9156L75.7286 29.9011C75.7139 30.2136 75.8137 30.5204 76.0092 30.7643L79.7559 35.4408L77.6377 41.0461C77.5274 41.3387 77.5274 41.6614 77.6379 41.9538Z" fill="#3B3B3B"/>
<path d="M62.8237 20.1178C63.1324 20.4264 63.4384 20.7459 63.7333 21.0669C63.9865 21.3427 64.3324 21.4825 64.6795 21.4825C64.9897 21.4825 65.3009 21.3707 65.5473 21.1444C66.0696 20.6649 66.1044 19.8526 65.6249 19.3303C65.3054 18.9824 64.974 18.6365 64.6394 18.3021C64.3049 17.9677 63.9591 17.6362 63.6112 17.3167C63.0889 16.8372 62.2768 16.8717 61.7971 17.3942C61.3176 17.9164 61.3522 18.7288 61.8746 19.2083C62.1956 19.503 62.5148 19.8089 62.8237 20.1178Z" fill="#E30613"/>
<path d="M20.0933 20.1178C24.9844 15.2264 31.4599 12.141 38.3263 11.4298C45.0969 10.7283 51.9669 12.3441 57.6719 15.9787C58.27 16.3597 59.0635 16.1838 59.4445 15.5858C59.8255 14.9878 59.6496 14.1942 59.0516 13.8132C52.86 9.86857 45.4053 8.1155 38.0617 8.87576C30.6104 9.64771 23.5844 12.9953 18.2774 18.3021C12.437 24.1425 9.03656 31.9011 8.70248 40.1487C8.37063 48.3475 11.0862 56.308 16.3495 62.563C16.6033 62.8647 16.9665 63.0203 17.3327 63.0203C17.6245 63.0203 17.9177 62.9213 18.1586 62.7188C18.701 62.2622 18.7709 61.4523 18.3144 60.9099C13.4647 55.146 10.9624 47.8099 11.2685 40.2526C11.5762 32.6513 14.7103 25.5006 20.0933 20.1178Z" fill="#3B3B3B"/>
<path d="M67.356 23.4968C66.7579 23.8778 66.5822 24.6715 66.9632 25.2694C70.5978 30.9744 72.2133 37.8448 71.5121 44.615C70.8008 51.4815 67.7154 57.9568 62.8243 62.8483C57.4413 68.2311 50.2906 71.3652 42.6894 71.673C35.1334 71.9802 27.7959 69.4768 22.0322 64.6273C21.4897 64.1707 20.6798 64.2405 20.2232 64.7831C19.7666 65.3256 19.8364 66.1355 20.379 66.5921C26.2921 71.5673 33.7282 74.2663 41.4501 74.2661C41.8968 74.2661 42.3453 74.257 42.7937 74.2389C51.0413 73.905 58.7997 70.5045 64.6403 64.6641C69.9472 59.3572 73.295 52.331 74.0666 44.8797C74.8273 37.5357 73.0739 30.0814 69.1291 23.8898C68.7478 23.2916 67.9538 23.1156 67.356 23.4968Z" fill="#3B3B3B"/>
</g>
<defs>
<clipPath id="clip0_31_118">
<rect width="82" height="82" fill="white" transform="translate(0.5 0.5)"/>
</clipPath>
</defs>
</svg>
