<svg width="28" height="28" viewBox="0 0 28 28" fill="none" xmlns="http://www.w3.org/2000/svg">
<rect x="1" y="1" width="26" height="26" rx="13" fill="#1C1C1C"/>
<rect x="1" y="1" width="26" height="26" rx="13" stroke="#E30613"/>
<path d="M14 1.5C20.9036 1.5 26.5 7.09644 26.5 14C26.5 20.9036 20.9036 26.5 14 26.5C7.09644 26.5 1.5 20.9036 1.5 14C1.5 7.09644 7.09644 1.5 14 1.5ZM14.4121 6.08301C10.3152 6.08301 6.98016 9.41743 6.97852 13.5156C6.97796 14.8255 7.32036 16.1043 7.9707 17.2314L6.91699 21.083L10.8574 20.0498C11.943 20.6418 13.1654 20.9537 14.4092 20.9541H14.4121C18.5102 20.9524 21.8431 17.6187 21.8447 13.5215C21.8455 11.5355 21.0732 9.66759 19.6699 8.2627C18.2667 6.85789 16.4003 6.0839 14.4121 6.08301Z" fill="white"/>
<path d="M14.4147 7.3385C16.0647 7.33913 17.6155 7.98236 18.7819 9.15002C19.9482 10.3177 20.59 11.8695 20.5895 13.5201C20.5881 16.9266 17.8168 19.6989 14.4117 19.6989H14.4098C13.3013 19.6984 12.2138 19.4003 11.2653 18.8375L11.0397 18.7037L8.70178 19.317L9.32581 17.0367L9.17835 16.8033C8.55996 15.8198 8.23353 14.6826 8.23401 13.5153C8.23553 10.1092 11.0071 7.3385 14.4147 7.3385ZM11.7809 10.0826C11.6571 10.0826 11.455 10.1291 11.2848 10.3151C11.1144 10.5011 10.6354 10.9511 10.6354 11.8649C10.6356 12.7786 11.3 13.6613 11.3932 13.7858C11.486 13.9098 12.703 15.786 14.566 16.5905C15.0089 16.7817 15.3549 16.8955 15.6246 16.9811C16.0694 17.1224 16.4746 17.1031 16.7946 17.0553C17.1514 17.002 17.8936 16.6053 18.0485 16.1715C18.203 15.738 18.2032 15.3664 18.1569 15.2887C18.1104 15.2112 17.9861 15.1649 17.8004 15.0719C17.6144 14.9788 16.7025 14.5297 16.5319 14.4674C16.3617 14.4055 16.2376 14.3745 16.1139 14.5602C15.9901 14.746 15.6344 15.1646 15.526 15.2887C15.4177 15.4125 15.3091 15.4283 15.1237 15.3356C14.9379 15.2426 14.3389 15.0464 13.6295 14.4137C13.0774 13.9212 12.7047 13.3125 12.5963 13.1266C12.4882 12.9408 12.5854 12.8403 12.6783 12.7477C12.7618 12.6645 12.8639 12.5308 12.9567 12.4225C13.0494 12.3142 13.0804 12.2365 13.1422 12.1129C13.2041 11.9889 13.173 11.8797 13.1266 11.7867C13.0793 11.6915 12.7089 10.7792 12.5543 10.4078C12.4036 10.0459 12.2503 10.0952 12.1364 10.0895C12.0283 10.0841 11.9045 10.0826 11.7809 10.0826Z" fill="white"/>
</svg>
