<?xml version="1.0" encoding="UTF-8"?>
<svg id="impresión" xmlns="http://www.w3.org/2000/svg" viewBox="0 0 283.46 226.77">
  <defs>
    <style>
      .cls-1 {
        fill: #e30613;
      }
    </style>
  </defs>
  <path class="cls-1" d="M148.44,112.37c3.24,0,5.78-6.22,5.78-14.17,0-.56-.02-1.11-.04-1.66.02,0,.03.02.05.03.35.13.76.1,1.13.07,1-.1,1.96-.42,2.8-.99-1.21-.02-2.32.17-3.51.11-.2-.03-.38-.14-.54-.29-.12-1.56-.34-3.03-.65-4.35.14.02.29.04.43.03,1.12-.04,2.25-.42,3.05-1.22-1.12.15-2.16.32-3.26.33-.18,0-.34-.05-.48-.16-.3-1.07-.66-2.03-1.06-2.86.95-.05,1.92-.83,2.38-1.62l-1.34.47c-.36.11-.81.3-1.16.28-.16,0-.3-.05-.44-.12-.9-1.41-1.98-2.23-3.15-2.23-3.24,0-5.78,6.22-5.78,14.17,0,7.94,2.54,14.17,5.78,14.17ZM143.85,98.99c.54,3.01,1.71,5.11,3.07,5.11,1.88,0,3.4-3.98,3.4-8.89,0-.18,0-.35-.01-.52-.39.32-.89.52-1.43.52-1.26,0-2.28-1.02-2.28-2.28,0-1.26,1.02-2.28,2.28-2.28.37,0,.71.1,1.02.25-.58-2.73-1.69-4.58-2.97-4.58-.1,0-.19.02-.29.04.58-.73,1.19-1.14,1.8-1.14,1.11,0,2.24,1.31,3.12,3.59.95,2.5,1.48,5.83,1.48,9.39,0,3.56-.53,6.89-1.48,9.39-.87,2.28-2.01,3.59-3.12,3.59-1.11,0-2.24-1.31-3.12-3.59-.88-2.31-1.39-5.34-1.47-8.6Z"/>
  <path class="cls-1" d="M129.54,95.77c-1.18.05-2.3-.13-3.51-.11.84.57,1.8.89,2.8.99.37.03.77.06,1.13-.07.02,0,.03-.02.05-.03-.02.54-.04,1.09-.04,1.66,0,7.94,2.54,14.17,5.78,14.17,3.24,0,5.78-6.22,5.78-14.17,0-7.94-2.54-14.17-5.78-14.17-1.17,0-2.25.82-3.15,2.23-.14.07-.28.11-.44.12-.35.02-.8-.17-1.16-.28l-1.34-.47c.47.78,1.43,1.57,2.38,1.62-.41.82-.76,1.79-1.06,2.86-.14.11-.29.17-.48.16-1.1,0-2.14-.18-3.26-.33.8.8,1.93,1.18,3.05,1.22.14,0,.28,0,.42-.02-.31,1.32-.53,2.78-.65,4.35-.15.15-.34.26-.54.29ZM135.76,85.22c1.11,0,2.24,1.31,3.12,3.59.95,2.5,1.48,5.83,1.48,9.39,0,3.56-.53,6.89-1.48,9.39-.87,2.28-2.01,3.59-3.12,3.59-1.11,0-2.24-1.31-3.12-3.59-.88-2.31-1.39-5.34-1.47-8.6.54,3.01,1.71,5.1,3.07,5.1,1.88,0,3.4-3.98,3.4-8.89,0-.18,0-.35-.01-.52-.39.32-.89.52-1.43.52-1.26,0-2.28-1.02-2.28-2.28,0-1.26,1.02-2.28,2.28-2.28.37,0,.71.1,1.02.25-.58-2.73-1.69-4.58-2.97-4.58-.1,0-.19.02-.29.04.58-.73,1.19-1.14,1.8-1.14Z"/>
  <path class="cls-1" d="M177.31,75.77h-70.56c-2.34,0-4.25,1.9-4.25,4.25v45.75c0,2.34,1.9,4.25,4.25,4.25h70.56c2.34,0,4.25-1.9,4.25-4.25v-45.75c0-2.34-1.9-4.25-4.25-4.25ZM179.78,80.02v45.75c0,1.36-1.11,2.47-2.47,2.47h-70.56c-1.36,0-2.47-1.11-2.47-2.48v-45.75c0-1.36,1.11-2.47,2.47-2.47h70.56c1.36,0,2.47,1.11,2.47,2.48Z"/>
  <path class="cls-1" d="M167.84,115.13c-1.45-1.72-3.32-4.67-4.01-9.02l-1.76.28c.36,2.26,1,4.17,1.77,5.79-5.88,6.36-13.58,9.86-21.82,9.86-8.42,0-16.27-3.65-22.19-10.27.93-1.76,1.73-3.91,2.15-6.52l-1.76-.28c-.69,4.35-2.56,7.3-4.01,9.02-1.58,1.87-3.01,2.72-3.03,2.72l.44.77.45.77c.16-.09,2.63-1.55,4.82-4.87,6.22,6.74,14.38,10.44,23.13,10.44,8.55,0,16.55-3.53,22.72-9.98,2.28,3.79,5.07,5.45,5.24,5.55l.89-1.54s-1.45-.86-3.03-2.72Z"/>
  <path class="cls-1" d="M233.25,91.75c-2.34-2.63-8.58,1.23-11.4,3.21-.31-1.48-1.37-2.6-3.25-3.39-1.46-.61-2.9-.72-4.25-.34-.47-1.37-1.68-2.42-3.83-3.31-1.6-.67-3.05-.74-4.3-.2-.22.09-.42.21-.63.34,1.42-8.38,1.18-13.45-.71-15.43-.74-.78-1.74-1.1-2.89-.93-3.13.48-5.58,5.23-7.51,14.54-1.19,5.75-1.78,11.48-1.91,12.88-3.12,3.06-4.6,6.95-4.07,10.89.27,2.02,1.06,3.93,2.3,5.65-.28,1.61-.53,4.34.37,6.85.62,1.73,1.7,3.08,3.17,4.01-3.07,2.96-6.36,4.54-9.42,5.31v-52.63c0-3.73-3.03-6.77-6.77-6.77h-72.24c-3.73,0-6.77,3.03-6.77,6.77v52.79c-3.22-.72-6.74-2.31-10.01-5.45,1.47-.93,2.55-2.28,3.17-4.01.9-2.51.66-5.24.37-6.85,1.24-1.72,2.03-3.63,2.3-5.65.53-3.94-.95-7.83-4.07-10.89-.13-1.41-.72-7.13-1.91-12.88-1.92-9.31-4.38-14.07-7.51-14.54-1.15-.17-2.15.15-2.89.93-1.89,1.99-2.13,7.06-.71,15.46-.21-.13-.41-.27-.63-.36-1.25-.53-2.7-.47-4.3.2-2.14.9-3.36,1.95-3.83,3.31-1.34-.37-2.79-.27-4.25.34-1.88.78-2.94,1.9-3.25,3.38-1.06-.73-2.53-1.69-4.08-2.49-3.66-1.9-6.06-2.13-7.32-.71-.59.67-.86,1.5-.78,2.49.36,4.81,9.12,12.45,11.08,14.11.19,1.85,1.32,9.72,6.56,13.07,1.82,1.16,3.52,1.95,5.26,2.37,2,1.95,5,3.91,9.12,4.23.92,2.33,2.54,4.93,4.86,7.15,4.13,3.97,9.82,5.47,14.81,5.46,1.22,1.22,2.91,1.97,4.77,1.97h23.71c-.2,2.62-.83,6.35-1.9,7.32-.82.74-1.64,1.48-2.46,2.19-.54.47-.73,1.21-.48,1.89.25.67.88,1.11,1.6,1.11h31.29c.72,0,1.35-.43,1.6-1.11.25-.67.07-1.41-.48-1.89-.81-.71-1.64-1.45-2.46-2.19-1.07-.98-1.69-4.7-1.9-7.32h23.71c1.87,0,3.56-.76,4.78-1.98,4.84-.11,10.25-1.66,14.22-5.47,2.31-2.22,3.93-4.8,4.85-7.13,4.13-.31,7.14-2.3,9.14-4.25,1.73-.42,3.44-1.21,5.25-2.36,5.24-3.35,6.36-11.21,6.56-13.06,1.96-1.66,10.72-9.3,11.08-14.11.07-.99-.19-1.83-.78-2.49ZM79.88,73.86c.35-.36.76-.48,1.34-.4,3.09.47,5.25,9.34,6.03,13.13.88,4.26,1.43,8.5,1.7,10.93-2-1.29-4.97-2.26-7.59-2.52-.41-1.53-.75-2.69-1.02-3.48v-.04c-1.13-5.58-2.69-15.28-.45-17.63ZM70.8,91.83c.29-.84,1.21-1.58,2.83-2.26,1.14-.48,2.12-.55,2.92-.21,1.04.44,1.63,1.51,1.95,2.34.24.62.58,1.73.99,3.24-2.49.09-4.39.13-5.64.13-.72,0-1.41.1-2.05.28-.12-.22-.24-.43-.36-.65-.68-1.19-.89-2.13-.64-2.88ZM63.29,95.89c0-.85.28-1.83,2.27-2.66,1.21-.51,2.35-.54,3.41-.14.11.77.41,1.6.93,2.5.09.16.18.32.27.48-1.15.69-1.99,1.68-2.28,2.86-.47,1.91.58,3.75,2.81,4.92.91.48,2.71.92,4.53,1.28.39,1.4.29,2.52-.34,3.22-.64.71-1.68.85-2.43.68-2.39-.56-6.13-4.62-7.7-8.36l-.07-.16c-.72-1.73-1.41-3.36-1.4-4.61ZM73.08,122.14c-.13-.06-.26-.09-.39-.08-1.53-.38-3.04-1.08-4.66-2.11-5.08-3.24-5.77-11.99-5.77-12.08-.02-.24-.13-.47-.32-.62-2.89-2.4-10.45-9.43-10.73-13.12-.04-.5.07-.88.33-1.18,1.28-1.43,7.51,2.16,10.11,4.23.25,1.25.81,2.6,1.39,4l.07.16c1.6,3.84,5.67,8.65,8.93,9.41.34.08.68.12,1.02.12,1.2,0,2.36-.48,3.14-1.34.09-.1.18-.21.27-.34-.12.5-.19,1.04-.21,1.63-.01.49.38.9.87.91.49.02.9-.38.91-.87.08-3.56,2.93-4.89,3.05-4.94.37-.16.58-.54.52-.94-.06-.4-.37-.7-.77-.76-2.07-.27-7.77-1.14-9.33-1.96-1.48-.78-2.17-1.84-1.91-2.92.19-.76.85-1.53,1.89-2.01.11-.01.22-.04.32-.09.02-.01.04-.04.06-.05.57-.21,1.23-.34,1.97-.34,1.3,0,3.28-.05,5.88-.14,2.86-.11,6.96,1.18,8.93,2.8,3.39,2.78,5.05,6.52,4.54,10.28-.56,4.2-3.79,7.91-8.85,10.17-4.76,2.12-8.1,2.85-11.28,2.18ZM77.18,107.36c.08-.54.08-1.16-.04-1.89.46.08.9.15,1.31.21-.44.44-.89,1-1.27,1.68ZM85.82,125.96c-4.46.97-7.85-.17-10.26-1.8,2.74-.04,5.75-.9,9.52-2.58,2.41-1.07,4.44-2.46,6.03-4.07.55,6.4-3.43,8.04-5.3,8.45ZM157.48,153.35h-30.93c.78-.68,1.57-1.39,2.35-2.1.96-.87,1.65-2.69,2.12-5.56.19-1.18.3-2.28.36-3h21.28c.06.72.17,1.82.36,3,.47,2.87,1.16,4.69,2.12,5.56.78.71,1.57,1.41,2.35,2.09ZM178.14,140.84h-72.24c-2.75,0-4.99-2.24-4.99-5v-56.66c0-2.75,2.24-4.99,5-4.99h72.24c2.75,0,4.99,2.24,4.99,5v56.66c0,2.75-2.24,4.99-5,4.99ZM214.5,93.07c1.05-.39,2.19-.36,3.41.15,1.98.83,2.26,1.81,2.27,2.66.01,1.24-.67,2.88-1.4,4.61l-.07.16c-1.56,3.74-5.3,7.8-7.7,8.36-.75.18-1.79.03-2.43-.68-.63-.7-.75-1.81-.36-3.21,1.83-.36,3.64-.8,4.55-1.28,2.23-1.17,3.28-3.01,2.81-4.92-.29-1.17-1.13-2.17-2.28-2.86.09-.16.17-.32.27-.48.52-.9.82-1.73.93-2.5ZM206.91,89.35c.8-.34,1.78-.27,2.92.21,1.62.68,2.55,1.42,2.83,2.26.25.74.04,1.68-.64,2.87-.13.22-.24.43-.36.65-.64-.18-1.34-.28-2.05-.28-1.25,0-3.15-.05-5.64-.14.41-1.5.75-2.62.99-3.24.32-.82.91-1.9,1.95-2.34ZM196.22,86.58c.78-3.79,2.94-12.66,6.03-13.13.58-.09.99.03,1.34.4,2.24,2.35.68,12.05-.45,17.63v.05c-.28.79-.62,1.94-1.03,3.46-2.62.26-5.59,1.24-7.59,2.52.27-2.43.82-6.67,1.7-10.93ZM197.64,125.94c-1.87-.41-5.85-2.05-5.3-8.45,1.59,1.61,3.63,2.99,6.03,4.07,3.78,1.69,6.78,2.54,9.52,2.58-2.41,1.63-5.8,2.77-10.26,1.8ZM232.25,94.12c-.28,3.69-7.84,10.72-10.73,13.11-.19.15-.3.38-.32.62,0,.09-.7,8.83-5.78,12.08-1.62,1.03-3.12,1.74-4.66,2.11-.14,0-.27.02-.4.08-3.17.66-6.51-.06-11.28-2.19-5.06-2.26-8.29-5.96-8.85-10.17-.5-3.75,1.15-7.5,4.55-10.28,1.98-1.62,6.08-2.9,8.93-2.8,2.6.09,4.58.14,5.88.14.75,0,1.4.13,1.97.34.02.01.04.04.06.05.08.04.17.05.26.07,1.07.48,1.76,1.26,1.95,2.04.27,1.08-.43,2.14-1.91,2.92-1.57.82-7.27,1.7-9.33,1.96-.39.05-.7.36-.76.75-.06.39.15.78.52.94.12.05,2.97,1.38,3.06,4.94.01.49.42.88.91.87.49-.01.88-.42.87-.91-.01-.59-.09-1.13-.2-1.63.09.13.18.24.27.34.77.86,1.94,1.34,3.14,1.34.34,0,.68-.04,1.02-.12,3.27-.76,7.33-5.57,8.94-9.41l.07-.16c.59-1.4,1.15-2.74,1.4-3.99,2.6-2.07,8.83-5.67,10.11-4.23.27.3.37.67.33,1.18ZM206.33,105.45c-.12.73-.12,1.36-.04,1.89-.38-.68-.82-1.24-1.27-1.68.4-.06.85-.14,1.31-.21Z"/>
</svg>